<?xml version="1.0" ?><!DOCTYPE svg  PUBLIC '-//W3C//DTD SVG 1.1//EN'  'http://www.w3.org/Graphics/SVG/1.1/DTD/svg11.dtd'><svg height="8.4666mm" style="shape-rendering:geometricPrecision; text-rendering:geometricPrecision; image-rendering:optimizeQuality; fill-rule:evenodd; clip-rule:evenodd" version="1.1" viewBox="0 0 846.66 846.66" width="8.4666mm" xml:space="preserve" xmlns="http://www.w3.org/2000/svg" xmlns:xlink="http://www.w3.org/1999/xlink"><defs><style type="text/css">
   <![CDATA[
    .fil0 {fill:black;fill-rule:nonzero}
   ]]>
  </style></defs><g id="Layer_x0020_1"><path class="fil0" d="M385.16 474.87c-14.22,5.17 -29.24,9.43 -44.87,12.65 -16.5,3.41 -33.73,5.67 -51.5,6.64l-161.68 183.51c-13.43,15.27 -38.38,3.76 -35.97,-16.13l25.06 -202.76c-29.86,-15.81 -54.86,-36.2 -73.01,-59.78 -20.91,-27.16 -32.78,-58.4 -32.78,-91.74 0,-53.21 29.99,-100.86 78.46,-134.87 81.22,-56.98 198.72,-66.48 291.64,-34.39 30.94,10.69 58.43,25.65 80.95,43.81 93.75,-34.09 213.93,-25.03 296.33,32.78 48.47,34.01 78.46,81.66 78.46,134.87 0,33.34 -11.87,64.58 -32.78,91.74 -18.14,23.58 -43.14,43.97 -73.01,59.78l25.07 202.76c2.38,19.9 -22.55,31.4 -35.98,16.13l-161.68 -183.51c-64.11,-3.52 -121.78,-23.89 -164.07,-54.86 -2.95,-2.16 -5.83,-4.37 -8.64,-6.63zm36.25 -226.56c-37.6,26.39 -60.87,62.19 -60.87,101.15 0,37.83 21.93,72.68 57.62,98.81 37.92,27.76 90.84,45.59 149.99,47.34 5.94,0.16 11.23,2.83 14.88,6.97l123.32 139.89 -18.66 -150.95c-1.16,-9.54 4.37,-18.34 12.91,-21.71 29.48,-13.76 53.71,-32.24 70.28,-53.77 15.35,-19.95 24.07,-42.63 24.07,-66.58 0,-38.96 -23.27,-74.76 -60.88,-101.15 -84.44,-59.25 -225.66,-61.03 -312.66,0zm-2.98 -46.79c-15.22,-9.81 -32.49,-18.14 -51.31,-24.64 -80.1,-27.66 -184.51,-19.9 -254.53,29.23 -37.61,26.39 -60.87,62.19 -60.87,101.15 0,23.95 8.71,46.63 24.06,66.57 16.58,21.54 40.8,40.02 70.28,53.78 8.54,3.37 14.07,12.17 12.91,21.7l-18.66 150.96 123.32 -139.89c3.65,-4.14 8.94,-6.81 14.89,-6.98 18.49,-0.54 36.43,-2.68 53.54,-6.21 7.03,-1.45 13.9,-3.14 20.62,-5.05 -21.31,-27.27 -33.44,-58.85 -33.44,-92.68 0,-53.21 29.98,-100.86 78.46,-134.87 6.57,-4.61 13.49,-8.97 20.73,-13.07z"/></g></svg>