<?xml version="1.0" ?><svg height="64" id="svg8" version="1.1" viewBox="0 0 16.933333 16.933334" width="64" xmlns="http://www.w3.org/2000/svg" xmlns:cc="http://creativecommons.org/ns#" xmlns:dc="http://purl.org/dc/elements/1.1/" xmlns:inkscape="http://www.inkscape.org/namespaces/inkscape" xmlns:rdf="http://www.w3.org/1999/02/22-rdf-syntax-ns#" xmlns:sodipodi="http://sodipodi.sourceforge.net/DTD/sodipodi-0.dtd" xmlns:svg="http://www.w3.org/2000/svg"><defs id="defs2"/><g id="layer1"><path d="m 29.675781,0 c -2.393818,0.00212984 -4.744411,0.4188074 -6.910156,1.0917969 -4.701183,1.4904558 -6.393833,4.7865219 -6.714844,8.1445312 -0.321009,3.3580079 0.692875,6.7588559 1.548828,9.0058599 -1.060301,1.938563 -0.57753,3.900833 0.458985,5.144531 1.098113,1.309483 2.84798,1.878465 4.503906,1.486328 0.721349,1.53602 1.823815,3.33397 3.439453,4.886719 l 0.0039,2.773437 -0.361328,-0.300781 c -0.305142,-0.253322 -0.731223,-0.302353 -1.085937,-0.125 l -4,2 c -0.556571,0.278952 -0.74274,0.988674 -0.332032,1.519531 l -3.138671,1.238281 c -3.094484,1.254106 -5.362374,2.919447 -6.058594,6.339844 l -0.585938,4.285156 C 9.5522783,48.395163 9,49.635418 9,50.998047 v 7.996094 C 9,61.747054 11.253394,64 14.005859,64 H 49.996094 C 52.748565,64 55,61.747058 55,58.994141 v -7.996094 c 0,-2.677501 -2.1302,-4.881225 -4.779297,-5 l 2.003906,-1.984375 1.128907,0.945312 c 0.648623,0.549483 1.643615,0.0904 1.646484,-0.759765 v -7.197266 c -2.99e-4,-0.606504 -0.536001,-1.073085 -1.136719,-0.990234 l -6.783203,0.917969 c -0.05182,-0.02041 -0.102984,-0.03947 -0.158203,-0.06445 l -3.128906,-1.253906 c 0.381781,-0.512298 0.211626,-1.225714 -0.345703,-1.503906 l -3.998047,-2 c -0.354747,-0.177354 -0.780786,-0.128323 -1.085938,0.125 l -0.361328,0.300781 v -2.910156 c 1.507306,-1.56564 2.503237,-3.258556 3.259766,-4.796875 1.762303,0.497402 3.554873,-0.09579 4.68164,-1.439453 1.126791,-1.343662 1.375546,-3.230737 0.634766,-4.820313 -0.467082,-1.002262 -1.274211,-1.775507 -2.246094,-2.210937 0.367295,-1.241387 0.73413,-2.801254 0.865235,-4.410157 C 45.345574,10.12556 45.211249,8.1992101 44.296875,6.5722656 43.38972,4.9578091 41.642945,3.7671858 39.115234,3.5214844 39.022598,3.4056116 38.927035,3.2928863 38.828125,3.1835938 37.565939,1.7889435 35.851988,0.94285777 34.001953,0.47851562 32.564569,0.14621873 31.112072,-0.0012779 29.675781,0 Z m 5.392578,13.822266 c 0.922342,-0.05049 1.835926,0.011 2.816407,0.21875 1.035027,0.229564 1.926977,0.657279 2.552734,1.33789 0.625754,0.680611 1.048824,1.637246 1.048828,3.203125 -0.0064,1.091753 1.491456,1.40259 1.919922,0.398438 0,0 0.114284,-0.265308 0.285156,-0.714844 0.464368,0.252147 0.84494,0.65002 1.078125,1.150391 0.41455,0.889545 0.275034,1.927904 -0.355469,2.679687 -0.583744,0.696112 -1.486314,1.02217 -2.36914,0.865235 0.03137,-0.08569 0.06356,-0.171355 0.0918,-0.251954 0.179376,-0.519863 -0.0946,-1.086945 -0.613281,-1.269531 -0.521543,-0.184724 -1.094041,0.08921 -1.277344,0.611328 -0.536436,1.530979 -1.695774,4.149736 -3.75,6.253907 -1.428859,1.463591 -3.049787,1.699218 -4.5625,1.699218 -1.497574,0 -3.087806,-0.28264 -4.583985,-1.720703 -3.184753,-3.061055 -4.103515,-7.480469 -4.103515,-7.480469 -0.109734,-0.542635 -0.639461,-0.892796 -1.181641,-0.78125 -0.53965,0.108958 -0.889787,0.633619 -0.783203,1.173828 0,2e-6 0.13816,0.711922 0.511719,1.791016 -0.827255,0.08878 -1.653151,-0.239448 -2.199219,-0.890625 -0.630436,-0.751783 -0.770016,-1.790142 -0.355469,-2.679687 0.414548,-0.889547 1.298821,-1.455082 2.279297,-1.455078 0.555293,0.0022 1.006079,-0.448521 1.003906,-1.003907 0.0047,-0.106488 -0.03549,-0.463079 -0.277343,-0.673828 0,0 -0.182608,-0.519568 -0.410157,-1.59375 1.175879,0.455163 2.543712,0.553597 3.921875,0.519531 2.841569,-0.07024 5.692215,-0.737679 6.4375,-0.9375 1.021078,-0.236284 1.952663,-0.398728 2.875,-0.449218 z m 0.933594,17.3125 v 3.0625 l -1.068359,0.888672 C 34.749009,34.818925 34.486049,34.53905 34.126953,34.359375 33.545193,34.06829 32.873446,33.989554 31.875,33.998047 c -0.998447,0.0085 -1.667412,0.09748 -2.244141,0.398437 -0.288364,0.15048 -0.51323,0.366851 -0.683593,0.587891 l -0.939454,-0.78125 v -3.042969 c 1.299214,0.678411 2.684146,0.835938 3.925782,0.835938 1.2634,0 2.595318,-0.115276 4.068359,-0.861328 z m -11.140625,3.054687 2.966797,2.464844 c -0.690867,0.475041 -1.749596,0.839686 -2.308594,0.796875 -0.436982,-0.0221 -1.208655,-0.51518 -1.74414,-0.414063 l -1.253907,-1.673828 z m 14.277344,0 2.347656,1.173828 -1.162109,1.554688 c -0.508165,-0.0669 -0.986778,0.06513 -1.267578,0.179687 -0.33944,0.138482 -0.496448,0.220632 -0.767579,0.244141 -0.271143,0.02343 -0.695148,-0.0053 -1.453124,-0.310547 -0.291967,-0.117581 -0.519138,-0.22992 -0.699219,-0.335938 z m -7.248047,1.808594 c 0.856562,-0.0072 1.257375,0.09773 1.341797,0.146484 0.02699,0.0155 0.02354,-0.0276 0.126953,0.207031 0.103423,0.234636 0.285362,0.725677 0.708984,1.210938 0.423623,0.485266 1.059596,0.93494 2.021485,1.322266 0.961892,0.387329 1.735068,0.504804 2.376953,0.449218 0.641892,-0.0556 1.113082,-0.285467 1.351562,-0.382812 0.238526,-0.09728 0.142859,-0.08961 0.236329,-0.06055 0.09347,0.0291 0.451945,0.230211 1.0625,0.828125 0.610556,0.597883 0.811855,0.951006 0.841796,1.041016 0.02986,0.08999 0.0407,-0.0102 -0.05273,0.228515 -0.09343,0.238715 -0.316352,0.714933 -0.361328,1.357422 -0.04271,0.609472 0.07706,1.331322 0.435547,2.216797 l -1.513672,1.447266 c -1.159843,-3.299638 -4.166536,-5.687339 -7.736328,-5.982422 -4.072516,-0.336605 -7.867575,2.13285 -9.21875,5.99414 -1.351174,3.861294 0.0705,8.163358 3.460937,10.447266 3.209338,2.161905 7.431196,2.01283 10.46875,-0.308594 l 0.958985,0.664063 c 0.389835,0.272012 0.917373,0.232019 1.261718,-0.0957 l 2.611329,-2.472657 c 0.118903,0.272882 0.28339,0.542415 0.49414,0.746094 -0.465048,0.472415 -0.771484,1.23454 -0.771484,2 0,0.08765 0.01252,0.04364 -0.002,0.238281 -0.06108,0.09256 -0.284599,0.464833 -0.876953,1.044922 -0.610547,0.597887 -0.969021,0.791222 -1.0625,0.820313 -0.09347,0.0291 0.0022,0.03666 -0.236329,-0.06055 -0.238526,-0.09728 -0.709674,-0.327193 -1.351562,-0.382813 -0.641889,-0.0556 -1.415062,0.06187 -2.376953,0.449219 -0.961882,0.387326 -1.59786,0.83702 -2.021485,1.322266 -0.423623,0.485246 -0.605563,0.984117 -0.708984,1.21875 -0.103423,0.234595 -0.03975,0.155603 -0.126953,0.199218 -0.08719,0.04362 -0.48523,0.153742 -1.341797,0.146485 -0.856566,-0.0072 -1.251514,-0.12487 -1.337891,-0.169922 -0.08637,-0.04509 -0.02563,0.02911 -0.125,-0.207031 -0.09936,-0.236334 -0.264418,-0.732186 -0.679687,-1.22461 -0.415265,-0.492427 -1.04488,-0.947924 -2,-1.351562 -0.955127,-0.403654 -1.726395,-0.5388 -2.369141,-0.494141 -0.642745,0.04464 -1.117287,0.268087 -1.357422,0.361328 -0.240132,0.09324 -0.143397,0.08339 -0.236328,0.05273 -0.09293,-0.03061 -0.45644,-0.225828 -1.05664,-0.833985 -0.433943,-0.439687 -0.636403,-0.716441 -0.734375,-0.882812 0.0068,-0.08145 0.01172,-0.163058 0.01172,-0.246094 0,-0.76546 -0.294792,-1.46802 -0.77539,-2 0.480597,-0.533684 0.77539,-1.236489 0.77539,-2.001953 0,-1.372535 -0.945835,-2.543161 -2.214843,-2.892578 0.139442,-0.34458 0.216796,-0.718047 0.216796,-1.109375 0,-0.547767 -0.152179,-1.064055 -0.414062,-1.507813 1.313547,-0.543057 1.87812,-1.609764 2.300781,-2.611328 0.389205,-0.959047 0.513029,-1.729468 0.457031,-2.371094 -0.05599,-0.64162 -0.285305,-1.112489 -0.382812,-1.349609 -0.0975,-0.23709 -0.08697,-0.139987 -0.05859,-0.230469 0.02839,-0.09048 0.218154,-0.446512 0.81836,-1.054687 0.6002,-0.608171 0.963705,-0.81113 1.05664,-0.841797 0.09293,-0.03061 -0.0038,-0.04047 0.236328,0.05273 0.240129,0.09324 0.714682,0.316654 1.357422,0.361328 0.642741,0.04468 1.414014,-0.09048 2.369141,-0.49414 0.955131,-0.403582 1.584735,-0.859134 2,-1.351563 0.415265,-0.492427 0.580309,-0.988256 0.679687,-1.224609 0.09938,-0.236372 0.09643,-0.172599 0.125,-0.201172 0.08637,-0.04505 0.481329,-0.168487 1.337891,-0.175781 z m -10.425781,1.287109 0.453125,0.605469 c -0.191036,0.16543 -0.391158,0.353159 -0.607422,0.572266 -0.70029,0.709587 -1.115676,1.245916 -1.310547,1.867187 -0.213891,0.681895 -0.022,1.249362 0.117188,1.587891 0.139196,0.338494 0.220771,0.491918 0.24414,0.759765 0.0234,0.267818 -0.01232,0.693118 -0.318359,1.447266 -0.429926,1.059405 -0.77313,1.308691 -1.128907,1.476562 -0.177887,0.08395 -0.420695,0.149762 -0.759765,0.353516 -0.08226,0.04944 -0.166469,0.112236 -0.25,0.183594 C 17.619124,46.04785 17.315234,46 17.001953,46 c -1.002174,-0.006 -1.990481,-0.0078 -2.996094,-0.0078 -0.471589,0 -0.929882,0.06598 -1.363281,0.189453 l 0.359375,-2.625 c 0.546543,-2.652752 2.331457,-3.825383 4.828125,-4.835938 z m 21.080078,0.002 3.261719,1.289063 c 0.403502,0.407153 0.846246,0.724004 1.294921,1.089844 l -3.519531,3.365234 c -0.135004,-0.616887 0.07175,-1.054479 0.185547,-1.3125 0.13338,-0.340838 0.320457,-0.882831 0.08594,-1.587891 -0.205569,-0.617824 -0.621642,-1.148142 -1.333985,-1.845703 -0.149027,-0.145927 -0.289435,-0.27515 -0.425781,-0.396484 z M 53,38.146484 v 3.91211 C 52.46562,41.513726 51.84122,41.585123 51.464844,41.955078 L 47.371094,46 h -0.373047 c -1.644559,0 -2.996094,1.353215 -2.996094,2.998047 0,0.389813 0.07509,0.761978 0.212891,1.105469 -0.625988,0.169814 -1.171812,0.539641 -1.566406,1.035156 l -3.775391,3.582031 -7.300781,-5.052734 c -0.313221,-0.216265 -0.722137,-0.23598 -1.054688,-0.05078 l -4.730469,2.617187 c -0.431148,-0.8295 -0.691716,-1.741799 -0.765625,-2.677734 l 6.638672,-3.402344 6.238282,4.015625 c 0.388486,0.250431 0.898096,0.201993 1.232421,-0.117188 l 10.169922,-9.728515 c 0.497726,-0.458419 0.41276,-1.227422 -0.242187,-1.646485 z m -38.994141,9.845704 c 1.002103,0.006 1.99049,0.0078 2.996094,0.0078 0.571247,0 1.003906,0.426707 1.003906,0.998047 0,0.57134 -0.432659,1.003906 -1.003906,1.003906 h -1.003906 c -0.549192,0.0021 -0.993952,0.448761 -0.996094,0.998047 -0.0022,0.552325 0.443855,1.001752 0.996094,1.003906 1.002887,-0.0015 2.00131,0 3.005859,0 0.571249,0 1.003909,0.424747 1.003906,0.996094 0,0.571347 -0.432659,1.003899 -1.003906,1.003906 H 16.005859 C 15.453621,54.001805 15.004106,54.447671 15.001953,55 c -0.0022,0.55539 0.448614,1.006083 1.003906,1.003906 h 2.998047 c 0.569339,0 0.998011,0.445335 0.996094,0.984375 0,0.542347 -0.389461,1.000536 -0.996094,1.017578 -1.346052,-0.0018 -2.658467,-0.0078 -4.001953,-0.0078 -0.552239,-0.0022 -1.001753,0.443757 -1.003906,0.996094 -0.0022,0.555382 0.448613,1.006079 1.003906,1.003906 l 2.115235,0.0078 c 0.479837,0.05288 0.880859,0.458596 0.880859,0.988282 0,0.553485 -0.404494,0.97799 -0.949219,1.003906 h -3.042969 c -1.679151,0 -3.00586,-1.324481 -3.005859,-3.003906 v -7.996094 c 0,-1.572786 1.176092,-2.944484 3.005859,-3.005859 z m 35.990235,0 C 51.675251,47.992182 53,49.350745 53,51.003906 v 7.990235 c 0,1.679421 -1.324757,3.003906 -3.003906,3.003906 h -3.050782 c -0.544724,-0.02608 -0.951171,-0.450425 -0.951171,-1.003906 0,-0.529463 0.371828,-0.931884 0.880859,-0.988282 0.715336,0.0038 1.41358,-0.0078 2.125,-0.0078 0.552234,-0.0022 0.998256,-0.451578 0.996094,-1.003906 C 49.993996,58.444832 49.549188,58.00019 49,57.998047 c -1.349117,-0.0031 -2.666363,0.0078 -4.009766,0.0078 -0.571249,0 -0.996093,-0.432566 -0.996093,-1.003906 0,-0.571343 0.424844,-0.998047 0.996093,-0.998047 h 2.998047 c 0.555292,0.0022 1.006076,-0.44852 1.003907,-1.003906 -0.0022,-0.552329 -0.451665,-0.998256 -1.003907,-0.996094 h -2.998047 c -0.571249,0 -0.996093,-0.432562 -0.996093,-1.003906 0,-0.17692 0.04003,-0.339817 0.113281,-0.480469 l 0.451172,-0.425781 c 0.129071,-0.05832 0.274847,-0.08984 0.43164,-0.08984 1.006375,8e-5 2.008122,0 3.011719,0 0.555292,0.0022 1.006076,-0.450476 1.003906,-1.005859 -0.0022,-0.552333 -0.451668,-0.99826 -1.003906,-0.996094 h -1.003906 c -0.571242,0 -1.003906,-0.43257 -1.003906,-1.003906 0,-0.571336 0.432664,-0.998047 1.003906,-0.998047 1.006299,0.0064 1.997167,-0.0078 2.998047,-0.0078 z M 21.013672,59.222656 c 0.09349,0.101707 0.19174,0.20404 0.296875,0.310547 0.700287,0.709569 1.228027,1.132096 1.845703,1.335938 0.617676,0.20383 1.246168,0.03703 1.587891,-0.0957 0.341722,-0.132664 0.503899,-0.209656 0.77539,-0.228516 0.271491,-0.0189 0.694646,0.02191 1.447266,0.339844 0.752614,0.318047 1.079707,0.598117 1.253906,0.804687 0.08807,0.104428 0.145958,0.197816 0.199219,0.308594 H 19.824219 C 19.937616,61.683439 20,61.34516 20,60.994141 c 0,-0.385508 -0.0754,-0.755966 -0.210938,-1.095703 0.460906,-0.127221 0.878513,-0.361397 1.22461,-0.675782 z m 21.976562,0.0039 c 0.345449,0.313325 0.760461,0.547653 1.220704,0.673829 -0.134932,0.339741 -0.208985,0.708242 -0.208985,1.09375 0,0.351004 0.06097,0.689287 0.173828,1.003906 h -8.777343 c 0.04755,-0.08708 0.102076,-0.165565 0.175781,-0.25 0.17774,-0.203565 0.503735,-0.470171 1.261719,-0.775391 0.757977,-0.305197 1.182,-0.341868 1.453124,-0.318359 0.271146,0.02343 0.428166,0.105694 0.767579,0.244141 0.339439,0.138481 0.966846,0.312425 1.58789,0.11914 0.621048,-0.193285 1.162661,-0.609083 1.875,-1.30664 0.1728,-0.169174 0.331239,-0.331726 0.470703,-0.484376 z" id="path844" style="opacity:1;fill:#000000;fill-opacity:1;stroke:none;stroke-width:2;stroke-linecap:round;stroke-linejoin:round;stroke-miterlimit:4;stroke-dasharray:none;stroke-dashoffset:0;stroke-opacity:1" transform="scale(0.26458334)"/></g></svg>