<?xml version="1.0" standalone="no"?>
<svg viewBox="0 0 200 200" xmlns="http://www.w3.org/2000/svg">
  <path fill="#E2EAFC" d="M26.8,-35.2C35.1,-36.4,42.6,-29.6,44.5,-21.5C46.5,-13.3,43,-3.8,36.5,1.6C30.1,7,20.7,8.4,16.2,14.5C11.7,20.7,12.1,31.6,8.3,36.6C4.4,41.6,-3.6,40.7,-8.5,36C-13.5,31.4,-15.3,23.1,-20.8,17.6C-26.4,12,-35.7,9.2,-41.9,2.6C-48.2,-4,-51.4,-14.5,-47.3,-20.8C-43.2,-27.2,-31.8,-29.5,-22.7,-27.9C-13.6,-26.4,-6.8,-21,1.2,-22.9C9.2,-24.8,18.5,-34,26.8,-35.2Z" transform="translate(100 100)" />
</svg>
